<svg width="128" height="128" viewBox="0 0 128 128" fill="none" xmlns="http://www.w3.org/2000/svg">
<mask id="mask0_2_30" style="mask-type:alpha" maskUnits="userSpaceOnUse" x="0" y="0" width="128" height="128">
<circle cx="64" cy="64" r="64" fill="#111322"/>
</mask>
<g mask="url(#mask0_2_30)">
<circle cx="64" cy="64" r="64" fill="#111322"/>
<path d="M37.209 93C35.3405 93 34.4062 91.999 34.4062 89.9971V38.5869C34.4062 36.585 35.3405 35.584 37.209 35.584H43.1348C45.4303 35.584 47.1654 36.5182 48.3398 38.3867L68.7598 71.1787H69.04C68.9066 69.5771 68.8398 67.9756 68.8398 66.374V38.5869C68.8398 36.585 69.7741 35.584 71.6426 35.584H77.7285C79.597 35.584 80.5312 36.585 80.5312 38.5869V89.9971C80.5312 91.999 79.597 93 77.7285 93H72.2031C69.9076 93 68.1725 92.0658 66.998 90.1973L46.1777 56.8047H45.8975C46.0309 58.4062 46.0977 60.0078 46.0977 61.6094V89.9971C46.0977 91.999 45.1634 93 43.2949 93H37.209Z" fill="white"/>
<mask id="mask1_2_30" style="mask-type:alpha" maskUnits="userSpaceOnUse" x="64" y="0" width="64" height="128">
<rect x="64" width="64" height="128" fill="white"/>
</mask>
<g mask="url(#mask1_2_30)">
<rect x="64" width="64" height="128" fill="white"/>
<path d="M50.9844 92C49.1615 92 48.25 91.0234 48.25 89.0703V38.9141C48.25 36.9609 49.1615 35.9844 50.9844 35.9844H56.7656C59.0052 35.9844 60.6979 36.8958 61.8438 38.7188L81.7656 70.7109H82.0391C81.9089 69.1484 81.8438 67.5859 81.8438 66.0234V38.9141C81.8438 36.9609 82.7552 35.9844 84.5781 35.9844H90.5156C92.3385 35.9844 93.25 36.9609 93.25 38.9141V89.0703C93.25 91.0234 92.3385 92 90.5156 92H85.125C82.8854 92 81.1927 91.0885 80.0469 89.2656L59.7344 56.6875H59.4609C59.5911 58.25 59.6562 59.8125 59.6562 61.375V89.0703C59.6562 91.0234 58.7448 92 56.9219 92H50.9844Z" fill="#111322"/>
</g>
</g>
</svg>
